<mxfile host="app.diagrams.net" modified="2024-06-18T09:20:24.067Z" agent="Mozilla/5.0 (Windows NT 10.0; Win64; x64) AppleWebKit/537.36 (KHTML, like Gecko) Chrome/125.0.0.0 Safari/537.36 Edg/125.0.0.0" etag="eyOrAyf_czB0Jc8qD1Bu" version="24.5.5" type="github">
  <diagram name="Page-1" id="13e1069c-82ec-6db2-03f1-153e76fe0fe0">
    <mxGraphModel dx="1666" dy="751" grid="1" gridSize="10" guides="1" tooltips="1" connect="1" arrows="1" fold="1" page="1" pageScale="1" pageWidth="1100" pageHeight="850" background="none" math="0" shadow="0">
      <root>
        <mxCell id="0" />
        <mxCell id="1" parent="0" />
        <mxCell id="qAsL3f_95yQnwN6Ljhob-19" style="edgeStyle=orthogonalEdgeStyle;rounded=0;orthogonalLoop=1;jettySize=auto;html=1;curved=0;" edge="1" parent="1" source="qAsL3f_95yQnwN6Ljhob-2" target="qAsL3f_95yQnwN6Ljhob-17">
          <mxGeometry relative="1" as="geometry">
            <Array as="points">
              <mxPoint x="360" y="270" />
              <mxPoint x="360" y="270" />
            </Array>
          </mxGeometry>
        </mxCell>
        <mxCell id="qAsL3f_95yQnwN6Ljhob-20" value="POST Method" style="edgeLabel;html=1;align=center;verticalAlign=middle;resizable=0;points=[];" vertex="1" connectable="0" parent="qAsL3f_95yQnwN6Ljhob-19">
          <mxGeometry x="-0.1577" y="-4" relative="1" as="geometry">
            <mxPoint as="offset" />
          </mxGeometry>
        </mxCell>
        <mxCell id="qAsL3f_95yQnwN6Ljhob-2" value="" style="html=1;points=[[0,0,0,0,5],[0,1,0,0,-5],[1,0,0,0,5],[1,1,0,0,-5]];perimeter=orthogonalPerimeter;outlineConnect=0;targetShapes=umlLifeline;portConstraint=eastwest;newEdgeStyle={&quot;curved&quot;:0,&quot;rounded&quot;:0};" vertex="1" parent="1">
          <mxGeometry x="320" y="230" width="10" height="300" as="geometry" />
        </mxCell>
        <mxCell id="qAsL3f_95yQnwN6Ljhob-3" value="Masukkan username dan password" style="html=1;verticalAlign=bottom;endArrow=block;curved=0;rounded=0;entryX=0;entryY=0;entryDx=0;entryDy=5;" edge="1" target="qAsL3f_95yQnwN6Ljhob-2" parent="1" source="qAsL3f_95yQnwN6Ljhob-5">
          <mxGeometry relative="1" as="geometry">
            <mxPoint x="170" y="235" as="sourcePoint" />
            <mxPoint as="offset" />
          </mxGeometry>
        </mxCell>
        <mxCell id="qAsL3f_95yQnwN6Ljhob-4" value="Result" style="html=1;verticalAlign=bottom;endArrow=open;dashed=1;endSize=8;curved=0;rounded=0;entryX=0.952;entryY=0.67;entryDx=0;entryDy=0;entryPerimeter=0;" edge="1" source="qAsL3f_95yQnwN6Ljhob-2" parent="1" target="qAsL3f_95yQnwN6Ljhob-5">
          <mxGeometry relative="1" as="geometry">
            <mxPoint x="170" y="525" as="targetPoint" />
          </mxGeometry>
        </mxCell>
        <mxCell id="qAsL3f_95yQnwN6Ljhob-5" value="" style="html=1;points=[[0,0,0,0,5],[0,1,0,0,-5],[1,0,0,0,5],[1,1,0,0,-5]];perimeter=orthogonalPerimeter;outlineConnect=0;targetShapes=umlLifeline;portConstraint=eastwest;newEdgeStyle={&quot;curved&quot;:0,&quot;rounded&quot;:0};" vertex="1" parent="1">
          <mxGeometry x="110" y="190" width="10" height="340" as="geometry" />
        </mxCell>
        <mxCell id="qAsL3f_95yQnwN6Ljhob-7" value="&lt;div&gt;&lt;br&gt;&lt;/div&gt;&lt;div&gt;&lt;br&gt;&lt;/div&gt;&lt;div&gt;&lt;br&gt;&lt;/div&gt;&lt;div&gt;&lt;br&gt;&lt;/div&gt;&lt;div&gt;&lt;br&gt;&lt;/div&gt;Administrator" style="shape=umlLifeline;perimeter=lifelinePerimeter;whiteSpace=wrap;html=1;container=1;dropTarget=0;collapsible=0;recursiveResize=0;outlineConnect=0;portConstraint=eastwest;newEdgeStyle={&quot;curved&quot;:0,&quot;rounded&quot;:0};participant=umlActor;" vertex="1" parent="1">
          <mxGeometry x="102.5" y="110" width="25" height="80" as="geometry" />
        </mxCell>
        <mxCell id="qAsL3f_95yQnwN6Ljhob-12" value="Login&lt;div&gt;Page&lt;/div&gt;" style="shape=umlLifeline;perimeter=lifelinePerimeter;whiteSpace=wrap;html=1;container=1;dropTarget=0;collapsible=0;recursiveResize=0;outlineConnect=0;portConstraint=eastwest;newEdgeStyle={&quot;curved&quot;:0,&quot;rounded&quot;:0};participant=umlBoundary;" vertex="1" parent="1">
          <mxGeometry x="300" y="125" width="50" height="105" as="geometry" />
        </mxCell>
        <mxCell id="qAsL3f_95yQnwN6Ljhob-15" value="DBMS" style="shape=umlLifeline;perimeter=lifelinePerimeter;whiteSpace=wrap;html=1;container=1;dropTarget=0;collapsible=0;recursiveResize=0;outlineConnect=0;portConstraint=eastwest;newEdgeStyle={&quot;curved&quot;:0,&quot;rounded&quot;:0};participant=umlEntity;" vertex="1" parent="1">
          <mxGeometry x="585" y="125" width="40" height="155" as="geometry" />
        </mxCell>
        <mxCell id="qAsL3f_95yQnwN6Ljhob-16" value="Sistem" style="shape=umlLifeline;perimeter=lifelinePerimeter;whiteSpace=wrap;html=1;container=1;dropTarget=0;collapsible=0;recursiveResize=0;outlineConnect=0;portConstraint=eastwest;newEdgeStyle={&quot;curved&quot;:0,&quot;rounded&quot;:0};participant=umlControl;" vertex="1" parent="1">
          <mxGeometry x="430" y="125" width="40" height="135" as="geometry" />
        </mxCell>
        <mxCell id="qAsL3f_95yQnwN6Ljhob-26" style="edgeStyle=orthogonalEdgeStyle;rounded=0;orthogonalLoop=1;jettySize=auto;html=1;curved=0;" edge="1" parent="1" source="qAsL3f_95yQnwN6Ljhob-17" target="qAsL3f_95yQnwN6Ljhob-2">
          <mxGeometry relative="1" as="geometry">
            <Array as="points">
              <mxPoint x="420" y="380" />
              <mxPoint x="420" y="380" />
            </Array>
          </mxGeometry>
        </mxCell>
        <mxCell id="qAsL3f_95yQnwN6Ljhob-27" value="&lt;font style=&quot;font-size: 10px;&quot;&gt;Tampilkan halaman&lt;/font&gt;&lt;div&gt;&lt;font style=&quot;font-size: 10px;&quot;&gt;utama&lt;/font&gt;&lt;/div&gt;" style="edgeLabel;html=1;align=center;verticalAlign=middle;resizable=0;points=[];" vertex="1" connectable="0" parent="qAsL3f_95yQnwN6Ljhob-26">
          <mxGeometry x="-0.2" y="-1" relative="1" as="geometry">
            <mxPoint x="-3" y="1" as="offset" />
          </mxGeometry>
        </mxCell>
        <mxCell id="qAsL3f_95yQnwN6Ljhob-29" style="edgeStyle=orthogonalEdgeStyle;rounded=0;orthogonalLoop=1;jettySize=auto;html=1;curved=0;" edge="1" parent="1" source="qAsL3f_95yQnwN6Ljhob-17" target="qAsL3f_95yQnwN6Ljhob-2">
          <mxGeometry relative="1" as="geometry">
            <Array as="points">
              <mxPoint x="360" y="460" />
              <mxPoint x="360" y="460" />
            </Array>
          </mxGeometry>
        </mxCell>
        <mxCell id="qAsL3f_95yQnwN6Ljhob-30" value="Error message" style="edgeLabel;html=1;align=center;verticalAlign=middle;resizable=0;points=[];" vertex="1" connectable="0" parent="qAsL3f_95yQnwN6Ljhob-29">
          <mxGeometry x="0.1354" y="-2" relative="1" as="geometry">
            <mxPoint as="offset" />
          </mxGeometry>
        </mxCell>
        <mxCell id="qAsL3f_95yQnwN6Ljhob-17" value="" style="html=1;points=[[0,0,0,0,5],[0,1,0,0,-5],[1,0,0,0,5],[1,1,0,0,-5]];perimeter=orthogonalPerimeter;outlineConnect=0;targetShapes=umlLifeline;portConstraint=eastwest;newEdgeStyle={&quot;curved&quot;:0,&quot;rounded&quot;:0};" vertex="1" parent="1">
          <mxGeometry x="445" y="260" width="10" height="270" as="geometry" />
        </mxCell>
        <mxCell id="qAsL3f_95yQnwN6Ljhob-24" style="edgeStyle=orthogonalEdgeStyle;rounded=0;orthogonalLoop=1;jettySize=auto;html=1;curved=0;" edge="1" parent="1" source="qAsL3f_95yQnwN6Ljhob-21" target="qAsL3f_95yQnwN6Ljhob-17">
          <mxGeometry relative="1" as="geometry">
            <Array as="points">
              <mxPoint x="480" y="310" />
              <mxPoint x="480" y="310" />
            </Array>
          </mxGeometry>
        </mxCell>
        <mxCell id="qAsL3f_95yQnwN6Ljhob-25" value="Kredensial valid/&lt;div&gt;invalid&lt;/div&gt;" style="edgeLabel;html=1;align=center;verticalAlign=middle;resizable=0;points=[];" vertex="1" connectable="0" parent="qAsL3f_95yQnwN6Ljhob-24">
          <mxGeometry x="0.1228" y="1" relative="1" as="geometry">
            <mxPoint as="offset" />
          </mxGeometry>
        </mxCell>
        <mxCell id="qAsL3f_95yQnwN6Ljhob-21" value="" style="html=1;points=[[0,0,0,0,5],[0,1,0,0,-5],[1,0,0,0,5],[1,1,0,0,-5]];perimeter=orthogonalPerimeter;outlineConnect=0;targetShapes=umlLifeline;portConstraint=eastwest;newEdgeStyle={&quot;curved&quot;:0,&quot;rounded&quot;:0};" vertex="1" parent="1">
          <mxGeometry x="600" y="280" width="10" height="250" as="geometry" />
        </mxCell>
        <mxCell id="qAsL3f_95yQnwN6Ljhob-22" value="&lt;font style=&quot;font-size: 10px;&quot;&gt;Verifikasi username&amp;nbsp;&lt;/font&gt;&lt;div&gt;&lt;font style=&quot;font-size: 10px;&quot;&gt;dan password&lt;/font&gt;&lt;/div&gt;" style="html=1;verticalAlign=bottom;endArrow=block;curved=0;rounded=0;entryX=0;entryY=0;entryDx=0;entryDy=5;" edge="1" target="qAsL3f_95yQnwN6Ljhob-21" parent="1" source="qAsL3f_95yQnwN6Ljhob-17">
          <mxGeometry relative="1" as="geometry">
            <mxPoint x="480" y="285" as="sourcePoint" />
          </mxGeometry>
        </mxCell>
        <mxCell id="qAsL3f_95yQnwN6Ljhob-23" value="return" style="html=1;verticalAlign=bottom;endArrow=open;dashed=1;endSize=8;curved=0;rounded=0;exitX=0;exitY=1;exitDx=0;exitDy=-5;" edge="1" source="qAsL3f_95yQnwN6Ljhob-21" parent="1">
          <mxGeometry relative="1" as="geometry">
            <mxPoint x="490" y="525" as="targetPoint" />
          </mxGeometry>
        </mxCell>
        <mxCell id="qAsL3f_95yQnwN6Ljhob-31" value="alt" style="shape=umlFrame;whiteSpace=wrap;html=1;pointerEvents=0;" vertex="1" parent="1">
          <mxGeometry x="80" y="330" width="400" height="180" as="geometry" />
        </mxCell>
        <mxCell id="qAsL3f_95yQnwN6Ljhob-35" value="" style="endArrow=none;dashed=1;html=1;rounded=0;exitX=-0.003;exitY=0.581;exitDx=0;exitDy=0;exitPerimeter=0;entryX=1.001;entryY=0.577;entryDx=0;entryDy=0;entryPerimeter=0;" edge="1" parent="1" source="qAsL3f_95yQnwN6Ljhob-31" target="qAsL3f_95yQnwN6Ljhob-31">
          <mxGeometry width="50" height="50" relative="1" as="geometry">
            <mxPoint x="280" y="410" as="sourcePoint" />
            <mxPoint x="330" y="360" as="targetPoint" />
          </mxGeometry>
        </mxCell>
        <mxCell id="qAsL3f_95yQnwN6Ljhob-36" value="[invalid]" style="text;html=1;align=center;verticalAlign=middle;resizable=0;points=[];autosize=1;strokeColor=none;fillColor=none;" vertex="1" parent="1">
          <mxGeometry x="120" y="430" width="60" height="30" as="geometry" />
        </mxCell>
        <mxCell id="qAsL3f_95yQnwN6Ljhob-37" value="[valid]" style="text;html=1;align=center;verticalAlign=middle;resizable=0;points=[];autosize=1;strokeColor=none;fillColor=none;" vertex="1" parent="1">
          <mxGeometry x="145" y="330" width="50" height="30" as="geometry" />
        </mxCell>
        <mxCell id="qAsL3f_95yQnwN6Ljhob-38" value="Result" style="html=1;verticalAlign=bottom;endArrow=open;dashed=1;endSize=8;curved=0;rounded=0;entryX=0.952;entryY=0.67;entryDx=0;entryDy=0;entryPerimeter=0;" edge="1" parent="1">
          <mxGeometry relative="1" as="geometry">
            <mxPoint x="120" y="490" as="targetPoint" />
            <mxPoint x="320" y="490" as="sourcePoint" />
          </mxGeometry>
        </mxCell>
      </root>
    </mxGraphModel>
  </diagram>
</mxfile>
